<svg width="312" height="105" viewBox="0 0 312 105" fill="none" xmlns="http://www.w3.org/2000/svg">
<path d="M6.27344 104.266C9.78906 104.266 12.25 101.805 12.25 98.2891V90.625H12.5312C17.3125 99.0625 25.6797 104.266 36.3672 104.266C55.0703 104.266 67.4453 89.4297 67.4453 66.4375C67.4453 43.5156 55 28.6094 36.5781 28.6094C26.2422 28.6094 17.7344 33.7422 13.0938 42.1094H12.8125V6.8125C12.8125 2.94531 10.2812 0.273438 6.69531 0.273438C3.10938 0.273438 0.578125 2.94531 0.578125 6.8125V98.2891C0.578125 101.875 2.82812 104.266 6.27344 104.266ZM33.9766 93.5078C21.6016 93.5078 12.7422 82.75 12.7422 66.4375C12.7422 50.1953 21.6016 39.3672 33.9766 39.3672C46.9141 39.3672 54.9297 49.8438 54.9297 66.4375C54.9297 83.1719 46.9141 93.5078 33.9766 93.5078ZM86.5703 104.266C90.1562 104.266 92.6875 101.594 92.6875 97.7266V6.8125C92.6875 2.94531 90.1562 0.273438 86.5703 0.273438C82.9844 0.273438 80.4531 2.94531 80.4531 6.8125V97.7266C80.4531 101.594 82.9844 104.266 86.5703 104.266ZM130.516 104.266C140.359 104.266 149.711 98.7812 154.07 90.4141H154.352V98.0781C154.352 101.734 156.742 104.266 160.188 104.266C163.562 104.266 165.953 101.734 165.953 98.0781V52.4453C165.953 37.8906 155.125 28.6094 137.969 28.6094C126.086 28.6094 115.398 33.8828 111.25 41.8984C110.266 43.6562 109.773 45.4141 109.773 46.9609C109.773 50.2656 112.023 52.4453 115.188 52.4453C117.508 52.4453 119.125 51.5312 120.25 49.4922C124.328 42.25 129.742 39.3672 137.688 39.3672C147.812 39.3672 153.719 44.7109 153.719 53.6406V59.7578L132.695 60.9531C115.82 61.9375 106.188 69.8125 106.188 82.3281C106.188 95.4766 115.961 104.266 130.516 104.266ZM133.258 93.8594C124.469 93.8594 118.633 89.2891 118.633 82.3281C118.633 75.4375 124.258 71.0781 134.102 70.4453L153.719 69.25V75.2266C153.719 85.7734 144.789 93.8594 133.258 93.8594ZM211.656 104.266C224.945 104.266 236.547 96.9531 240.062 86.8281C240.414 85.7031 240.625 84.6484 240.625 83.7344C240.625 80.5703 238.516 78.3906 235.352 78.3906C232.68 78.3906 231.344 79.375 229.586 82.6797C225.789 89.7109 220.445 93.5078 211.656 93.5078C199.07 93.5078 190.352 83.2422 190.352 66.4375C190.352 50.0547 198.93 39.3672 211.656 39.3672C220.094 39.3672 225.648 42.9531 229.516 50.1953C231.203 53.3594 232.68 54.4844 235.352 54.4844C238.516 54.4844 240.555 52.375 240.555 49.1406C240.555 48.3672 240.414 47.4531 240.133 46.5391C237.32 36.4141 225.297 28.6094 211.516 28.6094C191.266 28.6094 177.906 43.5859 177.906 66.5781C177.906 89.7109 191.406 104.266 211.656 104.266ZM260.383 104.266C263.969 104.266 266.5 101.594 266.5 97.7266V75.4375L273.32 68.9688L300.812 102.016C302.219 103.703 303.484 104.266 305.383 104.266C308.547 104.266 311.008 102.016 311.008 99.0625C311.008 97.5156 310.656 96.3906 309.461 94.9141L281.969 61.4453L306.859 37.8203C308.336 36.4141 308.828 35.3594 308.828 33.6719C308.828 30.9297 306.508 28.6094 303.625 28.6094C301.867 28.6094 300.672 29.1719 299.195 30.6484L266.5 62.3594V6.8125C266.5 2.94531 263.969 0.273438 260.383 0.273438C256.797 0.273438 254.266 2.94531 254.266 6.8125V97.7266C254.266 101.594 256.797 104.266 260.383 104.266Z" fill="#383836"/>
</svg>
